<svg height="512pt" viewBox="-50 0 512 512" width="512pt" xmlns="http://www.w3.org/2000/svg"><path d="m130.117188 150c0-5.523438-4.480469-10-10-10h-.238282c-5.523437 0-10 4.476562-10 10 0 5.519531 4.476563 10 10 10h.238282c5.519531 0 10-4.480469 10-10zm0 0"/><path d="m179.882812 160h.234376c5.523437 0 10-4.480469 10-10 0-5.523438-4.476563-10-10-10h-.234376c-5.523437 0-10 4.476562-10 10 0 5.519531 4.476563 10 10 10zm0 0"/><path d="m109.1875 27.898438c1.183594 0 2.390625-.214844 3.558594-.660157.054687-.019531.109375-.042969.160156-.0625 5.128906-2.050781 7.621094-7.871093 5.570312-13-2.03125-5.074219-7.753906-7.570312-12.84375-5.628906-.054687.019531-.109374.042969-.160156.0625-5.128906 2.050781-7.621094 7.871094-5.570312 13 1.5625 3.910156 5.316406 6.289063 9.285156 6.289063zm0 0"/><path d="m150 209.996094c10.226562 0 19.839844-3.980469 27.070312-11.210938 3.902344-3.90625 3.902344-10.238281 0-14.144531-3.90625-3.90625-10.238281-3.90625-14.144531 0-3.453125 3.453125-8.042969 5.355469-12.925781 5.355469s-9.476562-1.902344-12.929688-5.355469c-3.90625-3.902344-10.238281-3.902344-14.144531 0-3.902343 3.90625-3.902343 10.238281 0 14.144531 7.230469 7.230469 16.847657 11.210938 27.074219 11.210938zm0 0"/><path d="m150 492c-5.523438 0-10 4.476562-10 10s4.476562 10 10 10 10-4.476562 10-10-4.480469-10-10-10zm0 0"/><path d="m405.382812 327.5625v-21.953125c0-14.433594-11.742187-26.171875-26.171874-26.171875-2.765626 0-5.429688.433594-7.933594 1.230469-3.792969-9.785157-13.300782-16.746094-24.410156-16.746094-9.257813 0-17.40625 4.835937-22.058594 12.113281-3.160156-1.355468-6.636719-2.109375-10.285156-2.109375-8.359376 0-15.804688 3.941407-20.601563 10.054688-5.234375-10.707031-13.542969-19.675781-23.925781-26.035157v-137.945312c0-66.167969-53.828125-120-119.996094-120-5.523438 0-10 4.476562-10 10s4.476562 10 10 10c55.136719 0 99.996094 44.859375 99.996094 100v129.601562l-50.550782-14.445312c24.410157-16.113281 40.554688-43.78125 40.554688-75.15625v-39.152344c0-5.519531-4.480469-10-10-10-15.230469 0-52.660156-3.492187-71.339844-35.847656-1.785156-3.09375-5.085937-5-8.660156-5s-6.875 1.90625-8.660156 5c-17.015625 29.46875-52 33.871094-71.339844 33.871094-5.523438 0-10 4.476562-10 10v41.128906c0 31.375 16.140625 59.042969 40.550781 75.15625l-50.550781 14.445312v-129.601562c0-31.410156 15.191406-61.4375 40.632812-80.328125 4.4375-3.292969 5.363282-9.558594 2.070313-13.992187-3.292969-4.433594-9.554687-5.359376-13.992187-2.066407-30.5 22.648438-48.710938 58.679688-48.710938 96.386719v137.925781c-18.464844 11.289063-30 30.582031-30 52.074219v192c0 5.523438 4.476562 10 10 10h99.808594c5.523437 0 10-4.476562 10-10s-4.476563-10-10-10h-29.808594v-25.386719h139.996094v25.386719h-41.222656c-5.523438 0-10 4.476562-10 10s4.476562 10 10 10h188.355468c5.523438 0 10-4.476562 10-10v-51.964844c22.0625-14.410156 35.539063-39.007812 35.539063-65.554687v-38.832031c0-7.011719-2.777344-13.382813-7.285157-18.085938zm-26.171874-28.125c3.34375 0 6.171874 2.828125 6.171874 6.171875v13.871094h-12.34375v-13.871094c0-3.34375 2.824219-6.171875 6.171876-6.171875zm-32.34375-15.511719c3.34375 0 6.171874 2.824219 6.171874 6.171875v29.382813h-6.175781c-2.125 0-4.191406.257812-6.171875.742187v-20.117187s0-.003907 0-.007813v-10c0-3.347656 2.828125-6.171875 6.175782-6.171875zm-38.515626 16.171875c0-3.347656 2.824219-6.171875 6.171876-6.171875 3.339843 0 6.164062 2.820313 6.167968 6.160157v45.566406.015625 16.503906c0 3.34375-2.824218 6.167969-6.171875 6.167969-3.34375 0-6.171875-2.824219-6.171875-6.167969v-62.074219zm-26.175781 4.851563c3.347657 0 6.175781 2.828125 6.175781 6.171875v35.605468c0 3.34375-2.828124 6.171876-6.171874 6.171876-3.347657 0-6.171876-2.824219-6.175782-6.167969v-35.609375c0-3.34375 2.828125-6.171875 6.171875-6.171875zm-202.175781-144.949219v-31.453125c29.859375-1.957031 54.03125-12.800781 69.945312-31.261719 8.078126 9.59375 18.265626 17.3125 30.421876 23.027344 11.894531 5.589844 25.433593 9.042969 39.628906 10.148438v29.539062c0 29.117188-17.875 54.132812-43.226563 64.664062-.300781.105469-.597656.222657-.886719.351563-8.011718 3.203125-16.742187 4.984375-25.882812 4.984375-9.148438 0-17.882812-1.785156-25.902344-4.988281-.269531-.125-.550781-.234375-.832031-.332031-25.371094-10.523438-43.265625-35.546876-43.265625-64.679688zm42.746094 89.613281c1.6875-.480469 3.167968-1.386719 4.34375-2.574219 7.320312 1.929688 14.996094 2.957032 22.910156 2.957032s15.589844-1.027344 22.90625-2.957032c1.175781 1.1875 2.65625 2.09375 4.34375 2.574219l70 20.003907c10.507812 3 19.339844 9.105468 25.179688 17.214843-6.140626 2.472657-11.121094 7.210938-13.929688 13.167969h-237.191406c3.777344-14.195312 15.46875-25.820312 31.4375-30.382812zm157.25 242.386719h-40v-75.730469c9.71875-8.605469 15.75-24.023437 15.75-41.1875 0-19.597656-7.757813-35.777343-20.75-43.28125-4.78125-2.757812-10.898438-1.121093-13.660156 3.660157-2.761719 4.785156-1.121094 10.898437 3.660156 13.660156 6.628906 3.828125 10.75 13.777344 10.75 25.960937 0 12.332031-4.523438 23.894531-10.75 27.488281-3.09375 1.785157-5 5.089844-5 8.660157v35.386719h-139.996094v-35.386719c0-3.570313-1.90625-6.875-5-8.660157-6.226562-3.597656-10.746094-15.15625-10.746094-27.488281 0-12.183593 4.117188-22.132812 10.746094-25.960937 4.785156-2.761719 6.421875-8.875 3.660156-13.660156-2.761718-4.78125-8.878906-6.421876-13.660156-3.660157-12.992188 7.503907-20.746094 23.683594-20.746094 43.28125 0 17.164063 6.03125 32.582031 15.746094 41.1875v75.730469h-40v-172h236.003906v26.726562.003907 37.75c0 21.585937 9.011719 41.796875 23.992188 56.296875zm112.671875-107.519531c0 21.265625-11.628907 40.859375-30.351563 51.128906-3.199218 1.757813-5.1875 5.117187-5.1875 8.769531v47.621094h-57.132812v-37.15625c2.457031 1.207031 4.992187 2.292969 7.601562 3.246094 5.1875 1.894531 10.929688-.769532 12.824219-5.957032 1.898437-5.1875-.769531-10.929687-5.957031-12.828124-6.574219-2.402344-12.53125-5.921876-17.691406-10.289063-.175782-.164063-.359376-.320313-.550782-.472656-12.558594-10.902344-20.21875-26.902344-20.21875-44.0625v-12.324219c1.980469.480469 4.046875.742188 6.175782.742188 2.773437 0 5.445312-.441407 7.957031-1.242188 2.929687 7.507812 9.230469 13.335938 17.03125 15.625-.636719 3.992188 1.1875 8.136719 4.902343 10.261719 1.566407.894531 3.269532 1.320312 4.953126 1.320312 3.46875 0 6.84375-1.808593 8.691406-5.035156 7.761718-13.574219 22.296875-22.003906 37.933594-22.003906h6.675781c5.523437 0 10-4.480469 10-10 0-5.523438-4.476563-10-10-10h-23.457031c-3.34375 0-6.167969-2.824219-6.171876-6.164063v-.007812s0-.003906 0-.007813c0-3.34375 2.828126-6.164062 6.171876-6.164062h39.628906c3.347656 0 6.171875 2.824219 6.171875 6.171875zm0 0"/></svg>