<svg id="Capa_1" enable-background="new 0 0 512 512" height="512" viewBox="0 0 512 512" width="512" xmlns="http://www.w3.org/2000/svg"><g><path d="m192.277 336.231v-65.58c0-2.561-1.307-4.944-3.465-6.322-2.16-1.378-4.872-1.56-7.194-.48l-40.862 18.976c-2.647 1.229-4.341 3.884-4.341 6.803v46.604c0 4.143 3.357 7.5 7.5 7.5h40.862c4.143-.001 7.5-3.358 7.5-7.501zm-15-7.5h-25.862v-34.318l25.862-12.01z"/><path d="m225.326 343.731h40.862c4.143 0 7.5-3.357 7.5-7.5v-46.604c0-2.919-1.693-5.573-4.341-6.803l-40.862-18.976c-2.322-1.078-5.035-.897-7.194.48-2.158 1.378-3.465 3.762-3.465 6.322v65.58c0 4.144 3.358 7.501 7.5 7.501zm7.5-61.328 25.862 12.01v34.318h-25.862z"/><path d="m335.245 96.644h9.856c6.734 0 12.213 5.479 12.213 12.213v1.143c0 6.734-5.479 12.213-12.213 12.213h-33.35c-12.84 0-23.286 10.446-23.286 23.287v8.211c0 4.142 3.357 7.5 7.5 7.5s7.5-3.358 7.5-7.5v-8.211c0-4.569 3.717-8.287 8.286-8.287h33.35c15.005 0 27.213-12.208 27.213-27.213v-1.143c0-15.005-12.208-27.213-27.213-27.213h-9.856c-6.734 0-12.213-5.479-12.213-12.213s5.479-12.213 12.213-12.213c12.841 0 23.287-10.446 23.287-23.286v-11.069c0-4.142-3.357-7.5-7.5-7.5s-7.5 3.358-7.5 7.5v11.069c0 4.569-3.718 8.286-8.287 8.286-15.005 0-27.213 12.208-27.213 27.213s12.208 27.213 27.213 27.213z"/><path d="m261.628 161.21c4.143 0 7.5-3.358 7.5-7.5v-21.571c0-1.38 1.123-2.503 2.503-2.503 14.699 0 26.657-11.958 26.657-26.658s-11.958-26.658-26.657-26.658c-1.38 0-2.503-1.123-2.503-2.502v-11.556c0-4.142-3.357-7.5-7.5-7.5s-7.5 3.358-7.5 7.5v11.557c0 9.651 7.852 17.502 17.503 17.502 6.428 0 11.657 5.229 11.657 11.658s-5.229 11.658-11.657 11.658c-9.651 0-17.503 7.852-17.503 17.503v21.571c0 4.142 3.357 7.499 7.5 7.499z"/><path d="m288.966 69.762c4.143 0 7.5-3.358 7.5-7.5v-31.099c0-4.142-3.357-7.5-7.5-7.5s-7.5 3.358-7.5 7.5v31.099c0 4.142 3.357 7.5 7.5 7.5z"/><path d="m504.5 481.637h-13.857v-74.092h1.112c11.163 0 20.245-9.082 20.245-20.245s-9.082-20.245-20.245-20.245h-.469c.451-1.676.714-3.429.714-5.245 0-11.163-9.082-20.245-20.245-20.245h-10.469c.451-1.676.714-3.429.714-5.245 0-11.163-9.082-20.245-20.245-20.245h-23.15c-4.143 0-7.5 3.357-7.5 7.5s3.357 7.5 7.5 7.5h23.15c2.893 0 5.245 2.353 5.245 5.245s-2.353 5.245-5.245 5.245h-81.533v-10.49h28.396c4.143 0 7.5-3.357 7.5-7.5s-3.357-7.5-7.5-7.5h-28.396v-17.285l14.686 6.553c12.657 5.644 27.42-.104 33.016-12.644 5.63-12.617-.022-27.387-12.643-33.018l-83.165-37.11v-42.174h4.229c4.143 0 7.5-3.358 7.5-7.5s-3.357-7.5-7.5-7.5h-11.729-47.299-11.729c-4.143 0-7.5 3.358-7.5 7.5s3.357 7.5 7.5 7.5h4.229v14.375l-34.577-15.429c-6.477-2.891-13.903-2.891-20.374 0l-141.264 63.034c-3.782 1.688-5.48 6.123-3.792 9.905 1.687 3.783 6.121 5.479 9.905 3.793l141.264-63.035c2.588-1.155 5.558-1.155 8.147.001 22.931 10.232 141.023 62.927 180.041 80.337 5.047 2.253 7.311 8.159 5.059 13.207-2.236 5.012-8.133 7.322-13.207 5.059-4.807-2.145-170.24-75.966-172.91-77.157-1.945-.868-4.168-.868-6.113 0-1.025.458-168.084 75.003-172.911 77.157-5.032 2.245-10.958-.022-13.207-5.059-2.252-5.047.01-10.954 5.059-13.207l11.246-5.019c3.782-1.688 5.48-6.122 3.792-9.905s-6.123-5.48-9.905-3.792l-11.246 5.019c-12.618 5.63-18.276 20.398-12.644 33.019 5.618 12.587 20.429 18.261 33.018 12.643l14.685-6.553v182.847h-42.383c-4.143 0-7.5 3.357-7.5 7.5s3.357 7.5 7.5 7.5h497c4.143 0 7.5-3.357 7.5-7.5s-3.357-7.5-7.5-7.5zm-239.684-301.239h32.299v35.481l-32.299-14.412zm232.184 206.902c0 2.893-2.353 5.245-5.245 5.245-16.309 0-116.292 0-131.533 0v-10.49h131.533c2.892 0 5.245 2.353 5.245 5.245zm-171.721 4.929h19.942v21.535h-19.942zm146.476-35.664c2.893 0 5.245 2.353 5.245 5.245s-2.353 5.245-5.245 5.245h-111.533v-10.49zm-386.932 57.199h-19.941v-21.535h19.941zm98.564 67.873v-13.664c0-4.143-3.357-7.5-7.5-7.5s-7.5 3.357-7.5 7.5v13.664h-103.505v-16.338h57.606c4.143 0 7.5-3.357 7.5-7.5s-3.357-7.5-7.5-7.5h-57.606v-21.535h19.966c.258 6.94 5.969 12.511 12.972 12.511h28.919c7.167 0 12.997-5.83 12.997-12.996v-50.183c0-7.167-5.83-12.997-12.997-12.997h-28.919c-6.874 0-12.504 5.368-12.953 12.13h-19.985v-21.536h37.606c4.143 0 7.5-3.357 7.5-7.5s-3.357-7.5-7.5-7.5h-37.606v-21.535h47.606c4.143 0 7.5-3.357 7.5-7.5s-3.357-7.5-7.5-7.5h-47.606v-12.061l140.17-62.547 140.17 62.547v12.061h-47.606c-4.143 0-7.5 3.357-7.5 7.5s3.357 7.5 7.5 7.5h47.606v21.535h-37.606c-4.143 0-7.5 3.357-7.5 7.5s3.357 7.5 7.5 7.5h37.606v21.536h-19.986c-.45-6.762-6.079-12.13-12.953-12.13h-28.918c-7.167 0-12.997 5.83-12.997 12.997v50.183c0 7.166 5.83 12.996 12.997 12.996h28.918c7.003 0 12.714-5.57 12.972-12.511h19.967v21.535h-57.606c-4.143 0-7.5 3.357-7.5 7.5s3.357 7.5 7.5 7.5h57.606v16.338h-103.506v-55.607l1.675 1.45c3.144 2.725 7.879 2.358 10.58-.759 2.711-3.132 2.371-7.868-.76-10.58l-43.249-37.454c-1.761-1.526-4.056-2.098-6.218-1.717-1.297.229-2.546.8-3.603 1.716-9.035 7.825-35.101 30.398-43.249 37.455-3.131 2.712-3.471 7.448-.76 10.58 2.712 3.132 7.448 3.47 10.58.759l1.674-1.45v11.956c0 4.143 3.357 7.5 7.5 7.5s7.5-3.357 7.5-7.5v-24.946l21.665-18.763 21.664 18.763v68.597zm-83.564-55.362v-46.176h24.913v46.176zm210.456-46.176v46.176h-24.912v-46.176zm49.943 101.538v-16.338h18.067c4.143 0 7.5-3.357 7.5-7.5s-3.357-7.5-7.5-7.5h-18.067v-42.754h115.421v13.766h-69.067c-4.143 0-7.5 3.357-7.5 7.5s3.357 7.5 7.5 7.5h69.067v13.988h-49.067c-4.143 0-7.5 3.357-7.5 7.5s3.357 7.5 7.5 7.5h49.067v16.338z"/></g></svg>