<?xml version="1.0" encoding="utf-8"?>
<!-- Generator: Adobe Illustrator 19.0.0, SVG Export Plug-In . SVG Version: 6.00 Build 0)  -->
<svg version="1.1" id="Layer_1" xmlns="http://www.w3.org/2000/svg" xmlns:xlink="http://www.w3.org/1999/xlink" x="0px" y="0px"
	 viewBox="0 0 595.3 841.9" style="enable-background:new 0 0 595.3 841.9;" xml:space="preserve">
<style type="text/css">
	.st0{fill:#111111;}
	.st1{fill:#7C888F;}
	.st2{fill:#1B1012;}
	.st3{fill:url(#XMLID_5_);}
	.st4{fill:#5A472F;}
	.st5{fill:url(#XMLID_6_);}
	.st6{fill:#4B4532;}
	.st7{fill:#605140;}
	.st8{fill:url(#XMLID_10_);}
	.st9{fill:#141C25;}
</style>
<g id="XMLID_3_">
	<g id="XMLID_99_">
		<path id="XMLID_103_" d="M95.2,365.3c-3.4-5.1-7-14.6-5.9-26.7c13.4-13.2,215-206.8,215-206.8l61.1,62.6v-65h25.3v90.4
			l126.7,129.9c-1.3,6.2-4,13.4-6.8,14.6L304.7,157.7L95.2,365.3z"/>
		<path id="XMLID_102_" d="M168.9,371.5l0.4,24.8c0,0-50.9,47.3-54.6,51.2c-3.6,3.8-10.2,3.4-12.9,0s-3-9.3-1.1-11.7L168.9,371.5z"
			/>
		<path id="XMLID_101_" d="M438.8,403l0.5-24.5c0,0,63.4,59.1,66.9,62.6c3.5,3.5,2.4,9.9,0.5,13.6c-1.9,3.7-9.6,2.7-12,1.3
			L438.8,403z"/>
	</g>
	<g id="XMLID_96_">
		<path id="XMLID_97_" d="M152.6,712.4c-1.8,0-3.7-0.6-5.2-1.9c-3.4-2.9-3.8-7.9-0.9-11.3l117.1-137.6c17.9-20.3,26.2-39.3,26.2-60
			V240.9c-0.5,0.8-1,1.8-1.5,2.9c-1.9,4.6-7.1,16-13.5,30.4c-11.2,25-26.6,59.2-32.2,73.3c-11.1,27.8-14.4,50.8-10.4,72.3l0.1,0.7
			c0,0.3,2.7,27.8,4.8,46.6c3.8,33.3-4.8,52.1-35.1,77.4c-31,25.8-110,95.7-110.8,96.4c-3.3,2.9-8.4,2.6-11.3-0.7
			c-2.9-3.3-2.6-8.4,0.7-11.3c0.8-0.7,80-70.8,111.2-96.8c28.8-24,32.3-38.3,29.5-63.3c-2-17.9-4.5-43.4-4.8-46.6
			c-5.8-32.3,3.7-61.6,11.4-80.8c5.8-14.4,21.2-48.8,32.5-73.9c6.2-13.8,11.5-25.6,13.4-30.1c4.8-11.5,13.1-17.8,21-16.2
			c3.4,0.7,11.1,3.8,11.1,18.4v261.9c0,24.5-9.9,47.6-30.1,70.5l-117,137.4C157.1,711.4,154.9,712.4,152.6,712.4z"/>
		<path id="XMLID_92_" d="M261.9,406.8c-4.2,0-7.7-3.2-8-7.4c-2-29.1,14.9-77.7,38.9-94.3c3.6-2.5,8.6-1.6,11.1,2
			c2.5,3.6,1.6,8.6-2,11.1c-17.1,11.8-33.9,53.7-32.1,80c0.3,4.4-3,8.2-7.4,8.5C262.3,406.8,262.1,406.8,261.9,406.8z"/>
	</g>
	<g id="XMLID_53_">
		<path id="XMLID_91_" d="M442,712.4c-2.3,0-4.5-1-6.1-2.8L318.7,572c-20.2-22.8-30-45.9-30-70.4V239.8c0-14.5,7.8-17.7,11.2-18.4
			c8-1.6,16.2,4.8,21,16.2c1.9,4.4,7.2,16.3,13.4,30c11.3,25.1,26.8,59.6,32.5,74c7.7,19.2,17.2,48.5,11.4,80.8
			c-0.3,3.2-2.8,28.7-4.8,46.6c-2.8,25,0.6,39.3,29.5,63.3c31.2,25.9,110.4,96.1,111.2,96.8c3.3,2.9,3.6,8,0.7,11.3
			c-2.9,3.3-8,3.6-11.3,0.7c-0.8-0.7-79.8-70.7-110.8-96.4c-30.4-25.3-38.9-44.1-35.1-77.4c2.1-18.9,4.8-46.4,4.8-46.6l0.1-0.7
			c4-21.6,0.7-44.6-10.4-72.3c-5.6-14.1-21-48.4-32.3-73.4c-6.5-14.4-11.6-25.8-13.5-30.4c-0.5-1.1-1-2.1-1.5-2.9v260.7
			c0,20.7,8.3,39.7,26.1,59.9L448,699.2c2.9,3.4,2.5,8.4-0.9,11.3C445.6,711.8,443.8,712.4,442,712.4z"/>
		<path id="XMLID_120_" d="M332.6,406.8c-0.2,0-0.4,0-0.6,0c-4.4-0.3-7.7-4.1-7.4-8.5c1.8-26.3-14.9-68.2-32.1-80
			c-3.6-2.5-4.6-7.5-2-11.1c2.5-3.6,7.5-4.6,11.1-2c24.1,16.6,41,65.1,38.9,94.3C340.3,403.6,336.8,406.8,332.6,406.8z"/>
	</g>
	<path id="XMLID_121_" d="M228.6,657.9c-7.6,0-14.8-3-20.2-8.4L139,580.2c-5.4-5.4-8.4-12.5-8.4-20.2s3-14.8,8.4-20.2
		c11.1-11.1,29.2-11.1,40.3,0l69.4,69.4c5.4,5.4,8.4,12.6,8.4,20.2s-3,14.8-8.4,20.2C243.3,655,236.2,657.9,228.6,657.9z
		 M159.2,547.5c-3.2,0-6.4,1.2-8.9,3.7c-2.4,2.4-3.7,5.5-3.7,8.9s1.3,6.5,3.7,8.8l69.4,69.4c4.7,4.7,13,4.7,17.7,0
		c2.4-2.4,3.7-5.5,3.7-8.9s-1.3-6.5-3.7-8.9L168,551.2C165.6,548.7,162.4,547.5,159.2,547.5z"/>
	<g id="XMLID_2_">
		<path id="XMLID_56_" class="st0" d="M456,602.4l-28.2-28c0,0-1.9,0.2-3.5,1.6c6.8,13-1,29.8-14.4,38.7
			c-15.2,10.1-30.3,13.3-43.8,11c-11.9-2.1-13.2-5.7-15.6-12.6c-0.3,0.6-0.1,3.6-0.1,3.6c1.1,3.7,13.5,19.9,24.3,28
			c7,4.7,12.1,4.6,23.7,2.5c11.6-2.1,27.4-6.4,40.1-17.7c4.8-5.3,7.9-11.3,12.7-11.5c4.8-0.1,6.8-3.2,9.2-5.1
			C462.9,611.1,456,602.4,456,602.4z"/>
		<path id="XMLID_62_" class="st1" d="M424.7,581.1c0.4-2.3-2.7-6.1-3.5-3.9c-0.8,2.2-1.7,4.2,0.2,8s2.7,5.5,0.7,11.6
			c-2,6.1,2.5-1.4,2.9-6.4S424.7,581.1,424.7,581.1z"/>
		<path id="XMLID_61_" class="st2" d="M429.8,578.7c-7.3-0.1-9.7,5.1-9.5,0.9c0.2-4.8,0-31.6,0.3-33.6c0.2-1.9,1.2-3.2,3-4.4
			c1.8-1.1,4.2-3,7-1.5c2.8,1.5,2.4,30.9,2.4,30.9L429.8,578.7z"/>
		<path id="XMLID_59_" d="M461.6,605.4c-0.4-4.4-3.2-27.5-3.3-29.7c-0.1-2.2-0.6-5.2-2.6-7.4c-2-2.2-16.4-19.8-17.4-20.8
			c-0.7-0.7-3.1-3-5-4.7c0.6,5.8,2,20,2.1,25c0.1,6.4,1.2,8.6,3.2,11.3c2,2.7,19.5,24.2,21.2,26.1s1.1,4.2-0.2,2.6
			c0,0-22.4-27.7-24.4-30.4c-1.5-2.1-4-2-5.7-4.8c0,0.2,0,0.4,0,0.5c0.2,4.9,3.7,9.2,5.7,11.7c2,2.5,22.3,26.6,23.8,27.5
			S462,609.8,461.6,605.4z"/>
		<linearGradient id="XMLID_5_" gradientUnits="userSpaceOnUse" x1="439.8079" y1="599.8322" x2="446.8297" y2="594.1461">
			<stop  offset="0" style="stop-color:#2E0000"/>
			<stop  offset="0.155" style="stop-color:#3F0000"/>
			<stop  offset="0.4273" style="stop-color:#570000"/>
			<stop  offset="0.7821" style="stop-color:#7A0000"/>
			<stop  offset="1" style="stop-color:#91040C"/>
		</linearGradient>
		<path id="XMLID_58_" class="st3" d="M452.5,615c1.5,1.6,3.8,0.9,4.9,0.2c1.1-0.6,1.8-2.7-0.2-4.7c-2.1-2-27.2-32.5-27.2-32.5
			s1.7,3.3-0.6,3c-2.3-0.2-2,2.6-0.5,4C429.4,585.8,452.5,615,452.5,615z"/>
		<path id="XMLID_57_" class="st1" d="M366.2,625.7c13.4,2.3,28.6-0.9,43.8-11c13.4-8.9,21.2-25.7,14.4-38.7c-1.2,1-4.3,2.5-1.9,5.2
			c4.1,4.6,2.8,14.7-4.8,22.7c-7.6,8-19.7,17.6-35.7,19.6c-16,2-24.3-1.8-26.7-5.5c-2.5-3.7-2.8-7.3,0.7-12.8c-0.7-2.5-4,5.1-5.2,8
			C353,620.1,354.3,623.7,366.2,625.7z"/>
		<path id="XMLID_55_" class="st4" d="M435.1,577.4c2,2.7,24.4,30.4,24.4,30.4c1.4,1.6,2-0.6,0.2-2.6s-19.2-23.4-21.2-26.1
			c-2-2.7-3.1-4.9-3.2-11.3c-0.1-5-1.5-19.2-2.1-25c-0.7-0.6-1.9-2-2.4-2.4c-1.8-1.2-2,0.5-2,1.9c0,0,0.2,24.3,0.5,30.3
			C431.1,575.4,433.6,575.3,435.1,577.4z"/>
		<radialGradient id="XMLID_6_" cx="426.9277" cy="579.5355" r="6.4058" gradientUnits="userSpaceOnUse">
			<stop  offset="0" style="stop-color:#DEDFE0"/>
			<stop  offset="0.1133" style="stop-color:#CDD1D5"/>
			<stop  offset="0.5157" style="stop-color:#9FA8AF"/>
			<stop  offset="0.8243" style="stop-color:#859198"/>
			<stop  offset="1" style="stop-color:#7C888F"/>
		</radialGradient>
		<path id="XMLID_54_" class="st5" d="M425.8,582.1c0.6,2.9,1.3,4.5,2.3,2.9c1-1.7,1-2.3,2.6-1.5c1.5,0.7,3.1-0.1,2-1.9
			c-1-1.8-2.5-1.4-0.7-2.4s2.5-2.8,0.3-2.7c-2.2,0.1-1.9,0.4-4.2-1.3c-2.3-1.7-2.4-2-3.9-1.2s-2.9,1.3-3.8,6.3
			c-0.5,3.2,1.2,3.6,1.2,3.6c-0.1-1-0.7-3.4,0.4-5.1C423.1,577,425.6,578.8,425.8,582.1z"/>
		<path id="XMLID_50_" class="st6" d="M422.8,556.9c-1,0.8-2.7,0.5-1.3-0.6c1.3-1.1,2.2-1.2,2.5-2.7c0.4-1.5,0.4-6.2,0.4-7.3
			c-0.1-1.1,0.8-1.1,0.8-0.1c0.1,1,0,4.9,0.1,6.6S423.7,555.7,422.8,556.9z"/>
		<path id="XMLID_48_" class="st7" d="M428,539.6c-0.7,0-1.4,0.2-2,0.5l1,32.5c0,1.2,1.8,1.2,1.8-0.2c-0.1-2.4-0.6-23.5-0.6-23.5
			L428,539.6z"/>
		<g id="XMLID_45_">
			<path id="XMLID_60_" class="st0" d="M352.1,619.3c-1.3-8.4-0.2-12,5.1-15.2c-2.7-6.4-6-6.8-6-6.8
				C349.4,603.2,346.5,609.7,352.1,619.3z"/>
			<path id="XMLID_47_" class="st1" d="M351,618.9c1.6,2.4,2.3,1.5,0.7-0.5c-1.6-2-2.5-6.4-2.5-10.7c0-4.3,0.5-5.9,3.9-12.1
				c-1-0.2-2.2,0.1-2.2,0.1C348.6,599.9,346.7,611.5,351,618.9z"/>
		</g>
		<g id="XMLID_7_">
			<path id="XMLID_100_" d="M365.2,601.9l-16-18.8c0.2,6.1-2.5,12.2-7.9,15.4l15.5,18.2C356.8,610.7,359.7,604.8,365.2,601.9z"/>
		</g>
		
			<radialGradient id="XMLID_10_" cx="348.3202" cy="583.3688" r="4.6061" gradientTransform="matrix(0.845 -0.5348 0.5898 0.9319 -217.2733 206.5031)" gradientUnits="userSpaceOnUse">
			<stop  offset="0" style="stop-color:#DEDFE0"/>
			<stop  offset="0.1133" style="stop-color:#CDD1D5"/>
			<stop  offset="0.5157" style="stop-color:#9FA8AF"/>
			<stop  offset="0.8243" style="stop-color:#859198"/>
			<stop  offset="1" style="stop-color:#7C888F"/>
		</radialGradient>
		<path id="XMLID_95_" class="st8" d="M426,560.8c1,1.6-0.3,4.3-3,6c-2.7,1.7-5.6,1.7-6.7,0.1c-1-1.6,0.3-4.3,3-6
			C421.9,559.3,424.9,559.2,426,560.8z"/>
		
			<ellipse id="XMLID_20_" transform="matrix(0.845 -0.5348 0.5348 0.845 -236.2771 312.64)" class="st9" cx="421.1" cy="563.9" rx="4.1" ry="2.5"/>
	</g>
</g>
</svg>
